# ProBuilder 4.4.0
# https://unity3d.com/unity/features/worldbuilding/probuilder
# 12/26/2020 10:14:43 AM

mtllib ./Ramp.mtl
o Ramp

g New Game Object
v 0.009876356 -4.32855E-05 4.578815
v 1.019446 0.06923161 4.578815
v 1.664683 0.2228919 4.578815
v 2.264127 0.5122741 4.578816
v 2.939596 0.8654335 4.578817
v 3.586334 1.405985 4.578818
v 3.991987 1.944412 4.578815
v 4.426541 2.635022 4.578816
v 4.639778 3.227142 4.578817
v 4.816721 4.024439 4.578819
v 4.916383 4.978437 4.57882
v 5.249771 4.985928 4.57882
v 5.186261 -0.9775994 4.578817
v 0.01636516 -0.982071 4.578817
v 4.916384 4.978439 4.63117E-06
v 5.249772 4.98593 4.637421E-06
v 4.816722 4.024441 3.358256E-06
v 4.639779 3.227144 1.739265E-06
v 0.009877205 -4.148483E-05 -7.099743E-11
v 1.019447 0.06923341 1.173775E-07
v 0.016366 -0.9820692 2.101125E-06
v 1.664683 0.2228937 3.797121E-07
v 5.186262 -0.9775977 2.104857E-06
v 2.264128 0.5122759 9.043135E-07
v 2.939597 0.8654353 1.497036E-06
v 3.586335 1.405987 2.484549E-06
v 3.991988 1.944414 -4.040126E-07
v 4.426542 2.635024 7.68324E-07

vt -0.009877251 4.146833E-05
vt -1.019447 -0.06923342
vt -1.664683 -0.2228937
vt -2.264128 -0.5122759
vt -2.939597 -0.8654353
vt -3.586335 -1.405987
vt -3.991988 -1.944414
vt -4.426542 -2.635024
vt -4.639779 -3.227144
vt -4.816722 -4.024441
vt -4.916384 -4.978439
vt -5.249772 -4.98593
vt -5.186262 0.9775977
vt -0.01636605 0.9820692
vt 4.916384 -4.978439
vt 5.249772 -4.98593
vt 4.816722 -4.024441
vt 4.639779 -3.227144
vt 0.009877205 4.148483E-05
vt 1.019447 -0.06923341
vt 0.016366 0.9820692
vt 1.664683 -0.2228937
vt 5.186262 0.9775977
vt 2.264128 -0.5122759
vt 2.939597 -0.8654353
vt 3.586335 -1.405987
vt 3.991988 -1.944414
vt 4.426542 -2.635024
vt -5.026979 2.526383E-06
vt -5.360451 2.526383E-06
vt -5.026978 4.578818
vt -5.36045 4.578818
vt -4.503127 -1.095023E-06
vt -5.462316 -6.181857E-07
vt -4.503129 4.578815
vt -5.462318 4.578815
vt -4.155735 -2.078212E-06
vt -4.972431 -1.124538E-06
vt -4.155737 4.578814
vt -4.972433 4.578815
vt -1.021795 5.927969E-08
vt -0.009850484 4.578815
vt -1.021794 4.578815
vt 0.9821559 2.918824E-06
vt 0.0001067467 -1.839578E-09
vt 0.9821539 4.578818
vt 0.0001047209 4.578815
vt -1.007752 -1.994285E-08
vt -1.671033 1.141676E-07
vt -1.007752 4.578815
vt -1.671033 4.578815
vt 5.185415 2.485786E-06
vt 0.01551659 2.485786E-06
vt 5.185414 4.578818
vt 0.01551574 4.578818
vt -1.59604 -5.617052E-08
vt -2.26168 2.269515E-07
vt -1.59604 4.578815
vt -2.26168 4.578815
vt -2.243791 1.860144E-07
vt -3.006012 4.840376E-07
vt -2.243791 4.578815
vt -3.006012 4.578816
vt -2.810518 1.970536E-07
vt -3.653409 7.334955E-07
vt -2.810518 4.578816
vt -3.653409 4.578816
vt -3.280988 4.380094E-07
vt -3.955122 -2.899851E-06
vt -3.280989 4.578816
vt -3.955123 4.578813
vt -3.771745 -2.991958E-06
vt -4.587698 -2.395912E-06
vt -3.771746 4.578813
vt -4.587699 4.578813
vt -3.978975 -2.533471E-06
vt -4.60832 -2.056634E-06
vt -3.978976 4.578813
vt -4.608322 4.578814
vt 5.041553 -6.284528E-07
vt -0.9223131 1.815338E-06
vt 5.041555 4.578815
vt -0.9223111 4.578817

vn -1.998206E-07 2.077598E-06 1
vn -1.125743E-08 1.335472E-06 -1
vn -0.02246396 0.9997477 4.131214E-07
vn -0.9945875 0.1039022 -1.637311E-07
vn -0.9762477 0.2166576 -1.127901E-07
vn -0.06845727 0.997654 3.796405E-07
vn -0.9999782 -0.006607408 -1.880843E-07
vn -0.231667 0.9727951 3.405727E-07
vn 0.0008649185 -0.9999996 -3.916904E-07
vn -0.4347428 0.9005547 2.736714E-07
vn -0.4633298 0.8861859 2.507681E-07
vn -0.6413065 0.7672848 1.671053E-07
vn -0.7986932 0.6017384 6.945201E-08
vn -0.8463843 0.5325727 3.241497E-08
vn -0.9408504 0.3388222 -5.436432E-08
vn 0.9999433 -0.01064912 2.038176E-07

usemtl ProBuilderDefault
f 10/10/1 12/12/1 11/11/1
f 9/9/1 12/12/1 10/10/1
f 14/14/1 2/2/1 1/1/1
f 3/3/1 2/2/1 14/14/1
f 3/3/1 14/14/1 13/13/1
f 13/13/1 4/4/1 3/3/1
f 13/13/1 5/5/1 4/4/1
f 13/13/1 6/6/1 5/5/1
f 13/13/1 7/7/1 6/6/1
f 13/13/1 8/8/1 7/7/1
f 13/13/1 9/9/1 8/8/1
f 12/12/1 9/9/1 13/13/1
f 23/23/2 18/18/2 16/16/2
f 28/28/2 18/18/2 23/23/2
f 27/27/2 28/28/2 23/23/2
f 26/26/2 27/27/2 23/23/2
f 25/25/2 26/26/2 23/23/2
f 24/24/2 25/25/2 23/23/2
f 22/22/2 24/24/2 23/23/2
f 23/23/2 21/21/2 22/22/2
f 21/21/2 20/20/2 22/22/2
f 19/19/2 20/20/2 21/21/2
f 17/17/2 16/16/2 18/18/2
f 15/15/2 16/16/2 17/17/2
f 12/32/3 16/30/3 15/29/3
f 15/29/3 11/31/3 12/32/3
f 11/36/4 15/34/4 17/33/4
f 17/33/4 10/35/4 11/36/4
f 10/40/5 17/38/5 18/37/5
f 18/37/5 9/39/5 10/40/5
f 2/43/6 20/41/6 19/1/6
f 19/1/6 1/42/6 2/43/6
f 1/47/7 19/45/7 21/44/7
f 21/44/7 14/46/7 1/47/7
f 3/51/8 22/49/8 20/48/8
f 20/48/8 2/50/8 3/51/8
f 14/55/9 21/53/9 23/52/9
f 23/52/9 13/54/9 14/55/9
f 4/59/10 24/57/10 22/56/10
f 22/56/10 3/58/10 4/59/10
f 5/63/11 25/61/11 24/60/11
f 24/60/11 4/62/11 5/63/11
f 6/67/12 26/65/12 25/64/12
f 25/64/12 5/66/12 6/67/12
f 7/71/13 27/69/13 26/68/13
f 26/68/13 6/70/13 7/71/13
f 8/75/14 28/73/14 27/72/14
f 27/72/14 7/74/14 8/75/14
f 9/79/15 18/77/15 28/76/15
f 28/76/15 8/78/15 9/79/15
f 13/83/16 23/81/16 16/80/16
f 16/80/16 12/82/16 13/83/16

